<?xml version="1.0" encoding="UTF-8" standalone="no"?>
<svg version="1.1" xmlns="http://www.w3.org/2000/svg" xmlns:xlink="http://www.w3.org/1999/xlink" viewBox="0 0 1900 300">
  <g>
    <path fill="#111111" d="M300 293.34C300 297.02 297.02 300 293.33 300C293.33 300 293.33 300 293.33 300C284.67 300 215.33 300 206.67 300C202.98 300 200 297.02 200 293.34C200 293.34 200 293.34 200 293.34C200 274.67 200 125.34 200 106.67C200 102.99 197.02 100 193.33 100C193.33 100 193.33 100 193.33 100C184.67 100 115.33 100 106.67 100C102.98 100 100 102.99 100 106.67C100 125.34 100 274.67 100 293.34C100 297.02 97.02 300 93.33 300C93.33 300 93.33 300 93.33 300C84.67 300 15.33 300 6.67 300C2.98 300 0 297.02 0 293.34C0 293.34 0 293.34 0 293.34C0 264.67 0 35.34 0 6.67C0 2.99 2.98 0 6.67 0C35.33 0 264.67 0 293.33 0C297.02 0 300 2.99 300 6.67C300 6.67 300 6.67 300 6.67C300 64 300 264.67 300 293.34Z" id="f7RZc8HoDX"></path>
    <path fill="#111111" d="M400 293.34C400 297.02 402.98 300 406.67 300C406.67 300 406.67 300 406.67 300C435.33 300 664.67 300 693.33 300C697.02 300 700 297.02 700 293.34C700 293.34 700 293.34 700 293.34C700 264.67 700 35.34 700 6.67C700 2.99 697.02 0 693.33 0C693.33 0 693.33 0 693.33 0C664.67 0 435.33 0 406.67 0C402.98 0 400 2.99 400 6.67C400 6.67 400 6.67 400 6.67C400 64 400 264.67 400 293.34ZM506.67 200C502.98 200 500 197.02 500 193.34C500 193.34 500 193.34 500 193.34C500 184.67 500 115.34 500 106.67C500 102.99 502.98 100 506.67 100C506.67 100 506.67 100 506.67 100C515.33 100 584.67 100 593.33 100C597.02 100 600 102.99 600 106.67C600 106.67 600 106.67 600 106.67C600 115.34 600 184.67 600 193.34C600 197.02 597.02 200 593.33 200C593.33 200 593.33 200 593.33 200C576 200 515.33 200 506.67 200Z" id="c11f1q4abU"></path>
    <path fill="#111111" d="M1100 193.34C1100 197.02 1097.02 200 1093.33 200C1084.67 200 1015.33 200 1006.67 200C1002.98 200 1000 202.99 1000 206.67C1000 215.34 1000 284.67 1000 293.34C1000 297.02 997.02 300 993.33 300C984.67 300 915.33 300 906.67 300C902.98 300 900 297.02 900 293.34C900 284.67 900 215.34 900 206.67C900 202.99 897.02 200 893.33 200C884.67 200 815.33 200 806.67 200C802.98 200 800 197.02 800 193.34C800 184.67 800 115.34 800 106.67C800 102.99 802.98 100 806.67 100C815.33 100 884.67 100 893.33 100C897.02 100 900 97.02 900 93.34C900 84.67 900 15.34 900 6.67C900 2.99 902.98 0 906.67 0C915.33 0 984.67 0 993.33 0C997.02 0 1000 2.99 1000 6.67C1000 15.34 1000 84.67 1000 93.34C1000 97.02 1002.98 100 1006.67 100C1015.33 100 1084.67 100 1093.33 100C1097.02 100 1100 102.99 1100 106.67C1100 106.67 1100 106.67 1100 106.67C1100 124 1100 184.67 1100 193.34Z" id="c9GQoH8ys"></path>
    <path fill="#111111" d="M1500 293.34C1500 297.02 1497.02 300 1493.33 300C1484.67 300 1415.33 300 1406.67 300C1402.98 300 1400 297.02 1400 293.34C1400 284.67 1400 215.34 1400 206.67C1400 202.99 1397.02 200 1393.33 200C1384.67 200 1315.33 200 1306.67 200C1302.98 200 1300 202.99 1300 206.67C1300 215.34 1300 284.67 1300 293.34C1300 297.02 1297.02 300 1293.33 300C1284.67 300 1215.33 300 1206.67 300C1202.98 300 1200 297.02 1200 293.34C1200 264.67 1200 35.34 1200 6.67C1200 2.99 1202.98 0 1206.67 0C1215.33 0 1284.67 0 1293.33 0C1297.02 0 1300 2.99 1300 6.67C1300 15.34 1300 84.67 1300 93.34C1300 97.02 1302.98 100 1306.67 100C1315.33 100 1384.67 100 1393.33 100C1397.02 100 1400 97.02 1400 93.34C1400 84.67 1400 15.34 1400 6.67C1400 2.99 1402.98 0 1406.67 0C1415.33 0 1484.67 0 1493.33 0C1497.02 0 1500 2.99 1500 6.67C1500 64 1500 264.67 1500 293.34Z" id="f4wSZM8gGw"></path>
    <path fill="#111111" d="M1900 293.34C1900 297.02 1897.02 300 1893.33 300C1864.67 300 1635.33 300 1606.67 300C1602.98 300 1600 297.02 1600 293.34C1600 264.67 1600 35.34 1600 6.67C1600 2.99 1602.98 0 1606.67 0C1615.33 0 1684.67 0 1693.33 0C1697.02 0 1700 2.99 1700 6.67C1700 25.34 1700 174.67 1700 193.34C1700 197.02 1702.98 200 1706.67 200C1715.33 200 1784.67 200 1793.33 200C1797.02 200 1800 197.02 1800 193.34C1800 174.67 1800 25.34 1800 6.67C1800 2.99 1802.98 0 1806.67 0C1815.33 0 1884.67 0 1893.33 0C1897.02 0 1900 2.99 1900 6.67C1900 64 1900 264.67 1900 293.34Z" id="b1ucV4e2Hs"></path>
  </g>
</svg>
