<?xml version="1.0" encoding="UTF-8" standalone="no"?>
<svg version="1.1" xmlns="http://www.w3.org/2000/svg" xmlns:xlink="http://www.w3.org/1999/xlink" viewBox="0 0 1900 300">
  <g>
    <path fill="#ff0066" d="M1100 193.34C1100 197.02 1097.02 200 1093.33 200C1084.67 200 1015.33 200 1006.67 200C1002.98 200 1000 202.99 1000 206.67C1000 215.34 1000 284.67 1000 293.34C1000 297.02 997.02 300 993.33 300C984.67 300 915.33 300 906.67 300C902.98 300 900 297.02 900 293.34C900 284.67 900 215.34 900 206.67C900 202.99 897.02 200 893.33 200C884.67 200 815.33 200 806.67 200C802.98 200 800 197.02 800 193.34C800 184.67 800 115.34 800 106.67C800 102.99 802.98 100 806.67 100C815.33 100 884.67 100 893.33 100C897.02 100 900 97.02 900 93.34C900 84.67 900 15.34 900 6.67C900 2.99 902.98 0 906.67 0C915.33 0 984.67 0 993.33 0C997.02 0 1000 2.99 1000 6.67C1000 15.34 1000 84.67 1000 93.34C1000 97.02 1002.98 100 1006.67 100C1015.33 100 1084.67 100 1093.33 100C1097.02 100 1100 102.99 1100 106.67C1100 106.67 1100 106.67 1100 106.67C1100 124 1100 184.67 1100 193.34Z" id="c9GQoH8ys"></path>
  </g>
</svg>
