<svg xmlns="http://www.w3.org/2000/svg" viewBox="0 0 432 144">
  <g>
    <g>
      <path fill="#39b54a" d="M160,36H92a2,2,0,0,0-2,2v68a2,2,0,0,0,2,2h68a2,2,0,0,0,2-2V38A2,2,0,0,0,160,36ZM144,88a2,2,0,0,1-2,2H110a2,2,0,0,1-2-2V56a2,2,0,0,1,2-2h32a2,2,0,0,1,2,2Z"/>
      <path fill="#39b54a" d="M70,36H2a2,2,0,0,0-2,2v68a2,2,0,0,0,2,2H16a2,2,0,0,0,2-2V56a2,2,0,0,1,2-2H52a2,2,0,0,1,2,2v50a2,2,0,0,0,2,2H70a2,2,0,0,0,2-2V38A2,2,0,0,0,70,36Z"/>
      <path fill="#39b54a" d="M250,36H182a2,2,0,0,0-2,2V52a2,2,0,0,0,2,2h23a2,2,0,0,1,2,2v50a2,2,0,0,0,2,2h14a2,2,0,0,0,2-2V56a2,2,0,0,1,2-2h23a2,2,0,0,0,2-2V38A2,2,0,0,0,250,36Z"/>
      <path fill="#39b54a" d="M340,36H326a2,2,0,0,0-2,2V61a2,2,0,0,1-2,2H290a2,2,0,0,1-2-2V38a2,2,0,0,0-2-2H272a2,2,0,0,0-2,2v68a2,2,0,0,0,2,2h14a2,2,0,0,0,2-2V83a2,2,0,0,1,2-2h32a2,2,0,0,1,2,2v23a2,2,0,0,0,2,2h14a2,2,0,0,0,2-2V38A2,2,0,0,0,340,36Z"/>
      <path fill="#39b54a" d="M429,36H417a3,3,0,0,0-3,3V87a3,3,0,0,1-3,3H381a3,3,0,0,1-3-3V39a3,3,0,0,0-3-3H363a3,3,0,0,0-3,3v66a3,3,0,0,0,3,3h66a3,3,0,0,0,3-3V39A3,3,0,0,0,429,36Z"/>
      <rect fill="#39b54a" y="126" width="432" height="18" rx="2.75" ry="2.75"/>
      <rect fill="#39b54a" width="432" height="18" rx="2.75" ry="2.75"/>
    </g>
  </g>
</svg>
